<?xml version="1.0" encoding="utf-8"?>
<!-- Generator: Adobe Illustrator 21.0.0, SVG Export Plug-In . SVG Version: 6.00 Build 0)  -->
<svg version="1.1" id="Layer_1" xmlns="http://www.w3.org/2000/svg" xmlns:xlink="http://www.w3.org/1999/xlink" x="0px" y="0px"
	 viewBox="0 0 1792 1792" style="enable-background:new 0 0 1792 1792;" xml:space="preserve">
<path d="M1787.5,1129.2c0,98.4-34.8,182.5-104.5,252.1c-69.7,69.7-153.7,104.5-252.1,104.5H420.5c-114.5,0-212.5-40.7-293.9-122.1
	C45.2,1282.3,4.5,1184.3,4.5,1069.7c0-81.7,22-156.5,65.9-224.3s101.8-118.4,173.7-151.8c-1.2-17.3-1.9-30.6-1.9-39.9
	c0-131.3,46.4-243.3,139.3-336.2s204.9-139.3,336.2-139.3c97.8,0,186.5,27.2,266.1,81.7s137.6,125.7,174.1,213.6
	c43.3-38.4,94.7-57.6,154.2-57.6c65.6,0,121.7,23.2,168.1,69.7c46.4,46.4,69.7,102.5,69.7,168.1c0,46.4-12.7,89.2-38.1,128.2
	c79.9,18.6,145.8,60.2,197.8,124.9S1787.5,1045.6,1787.5,1129.2z"/>
</svg>
